# AST/ASF file generated using VICON BodyLanguage
# -----------------------------------------------
:version 1.10
:name VICON
:units
  mass 1.0
  length 0.45
  angle deg
:documentation
   .ast/.asf automatically generated from VICON data using
   VICON BodyBuilder and BodyLanguage model FoxedUp or BRILLIANT.MOD
:root
   order TX TY TZ RX RY RZ
   axis XYZ
   position 0 0 0  
   orientation 0 0 0 
:bonedata
  begin
     id 1 
     name lhipjoint
     direction 0.606768 -0.715223 0.346827 
     length 2.41543 
     axis 0 0 0  XYZ
  end
  begin
     id 2 
     name lfemur
     direction 0.34202 -0.939693 0  
     length 7.2778  
     axis 0 0 20  XYZ
    dof rx ry rz
    limits (-160.0 20.0)
           (-70.0 70.0)
           (-60.0 70.0)
  end
  begin
     id 3 
     name ltibia
     direction 0.34202 -0.939693 0   
     length 7.61811   
     axis 0 0 20   XYZ
    dof rx
    limits (-10.0 170.0)
  end
  begin
     id 4 
     name lfoot
     direction 0.0823924 -0.226371 0.97055   
     length 2.33618   
     axis -90 7.62852e-016 20   XYZ
    dof rx rz
    limits (-45.0 90.0)
           (-70.0 20.0)
  end
  begin
     id 5 
     name ltoes
     direction 1.53554e-011 -4.21934e-011 1   
     length 1.17015   
     axis -90 7.62852e-016 20   XYZ
    dof rx
    limits (-90.0 20.0)
  end
  begin
     id 6 
     name rhipjoint
     direction -0.6077 -0.714582 0.346516   
     length 2.4176  
     axis 0 0 0  XYZ 
  end
  begin
     id 7 
     name rfemur
     direction -0.34202 -0.939693 0   
     length 7.28127   
     axis 0 0 -20   XYZ
    dof rx ry rz
    limits (-160.0 20.0)
           (-70.0 70.0)
           (-70.0 60.0)
  end
  begin
     id 8 
     name rtibia
     direction -0.34202 -0.939693 0   
     length 7.77648   
     axis 0 0 -20   XYZ
    dof rx
    limits (-10.0 170.0)
 end
 begin
     id 9 
     name rfoot
     direction -0.0809463 -0.222398 0.97159   
     length 2.37533  
     axis -90 -7.62852e-016 -20   XYZ
    dof rx rz
    limits (-45.0 90.0)
           (-20.0 70.0)
  end
  begin
     id 10 
     name rtoes
     direction -1.53568e-011 -4.21714e-011 1   
     length 1.18972   
     axis -90 -7.62852e-016 -20   XYZ
    dof rx
    limits (-90.0 20.0)
  end
  begin
     id 11 
     name lowerback
     direction 0.010968 0.991932 -0.126297   
     length 2.21698   
     axis 0 0 0   XYZ
    dof rx ry rz
    limits (-20.0 45.0)
           (-30.0 30.0)
           (-30.0 30.0)
  end
  begin
     id 12 
     name upperback
     direction 0.0167007 0.997503 -0.0686276   
     length 2.22371   
     axis 0 0 0   XYZ
    dof rx ry rz
    limits (-20.0 45.0)
           (-30.0 30.0)
           (-30.0 30.0)
  end
  begin
     id 13 
     name thorax
     direction 0.0111721 0.999885 -0.0102878   
     length 2.25242   
     axis 0 0 0   XYZ
    dof rx ry rz
    limits (-20.0 45.0)
           (-30.0 30.0)
           (-30.0 30.0)
  end
  begin
     id 14 
     name lowerneck
     direction -0.0120265 0.990428 0.137508   
     length 1.57674   
     axis 0 0 0   XYZ
    dof rx ry rz
    limits (-20.0 45.0)
           (-30.0 30.0)
           (-30.0 30.0)
  end
  begin
     id 15 
     name upperneck
     direction 0.0175669 0.998907 0.0433089   
     length 1.5618   
     axis 0 0 0   XYZ
    dof rx ry rz
    limits (-20.0 45.0)
           (-30.0 30.0)
           (-30.0 30.0)
  end
  begin
     id 16
     name head
     direction 0.00754609 0.99997 0.00185367  
     length 1.60579  
     axis 0 0 0   XYZ
    dof rx ry rz
    limits (-20.0 45.0)
           (-30.0 30.0)
           (-30.0 30.0)
  end
  begin
     id 17 
     name lclavicle
     direction 0.885866 0.429166 -0.176231  
     length 3.44967  
     axis 0 0 0   XYZ
    dof ry rz
    limits (-20.0 10.0)
           (0.0 20.0)
  end
  begin
     id 18 
     name lhumerus
     direction 1 -4.48973e-011 -1.90255e-027   
     length 5.20607   
     axis 180 -30 -90   XYZ
    dof rx ry rz
    limits (-60.0 90.0)
           (-90.0 90.0)
           (-90.0 90.0)
  end
  begin
     id 19
     name lradius
     direction 1 -4.48956e-011 9.87925e-027   
     length 3.39961   
     axis 180 -30 -90   XYZ
    dof rx
    limits (-10.0 170.0)
  end
  begin
     id 20
     name lwrist
     direction 1 -4.48985e-011 1.73247e-026   
     length 1.6998   
     axis -9.60847e-015 90 90   XYZ
    dof ry
    limits (-180.0 0.0)
 end
  begin
     id 21 
     name lhand
     direction 1 -4.48798e-011 3.46119e-026   
     length 0.519693   
     axis -2.21073e-014 90 90   XYZ
    dof rx rz
    limits (-90.0 90.0)
           (-45.0 45.0)
  end
  begin
     id 22 
     name lfingers
     direction 1 -4.48938e-011 6.92797e-026   
     length 0.41899   
     axis -4.42155e-014 90 90   XYZ
    dof rx
    limits (0.0 90.0)
  end
  begin
     id 23
     name lthumb
     direction 0.707107 -6.34952e-011 0.707107   
     length 0.601588   
     axis -90 45 6.0103e-014   XYZ
    dof rx rz
    limits (-45.0 45.0)
           (-45.0 45.0)
  end
  begin
     id 24 
     name rclavicle
     direction -0.866736 0.456792 -0.200276   
     length 3.45032  
     axis 0 0 0   XYZ 
    dof ry rz
    limits (-10.0 20.0)
           (-20.0 0.0)
  end
  begin
     id 25 
     name rhumerus
     direction -1 -4.4897e-011 8.65094e-028  
     length 5.32214   
     axis 180 30 90   XYZ
    dof rx ry rz
    limits (-90.0 60.0)
           (-90.0 90.0)
           (-90.0 90.0)
  end
  begin
     id 26 
     name rradius
     direction -1 -4.48987e-011 1.08427e-026   
     length 3.51208   
     axis 180 30 90   XYZ
    dof rx
    limits (-10.0 170.0)
  end
  begin
     id 27 
     name rwrist
     direction -1 -4.48961e-011 1.73222e-026   
     length 1.75604   
     axis -9.60847e-015 -90 -90   XYZ
    dof ry
    limits (-180.0 0.0)
  end
  begin
     id 28
     name rhand
     direction -1 -4.48895e-011 3.46314e-026   
     length 0.586681   
     axis -2.21073e-014 -90 -90   XYZ
    dof rx rz
    limits (-90.0 90.0)
           (-45.0 45.0)
  end
  begin
     id 29
     name rfingers
     direction -1 -4.48968e-011 6.92916e-026   
     length 0.472997   
     axis -4.42155e-014 -90 -90   XYZ
    dof rx
    limits (0.0 90.0)
  end
  begin
     id 30
     name rthumb
     direction -0.707107 -6.34848e-011 0.707107   
     length 0.679133   
     axis -90 -45 -6.0103e-014   XYZ
    dof rx rz
    limits (-45.0 45.0)
           (-45.0 45.0)
  end
:hierarchy
  begin
    root lhipjoint rhipjoint lowerback
    lhipjoint lfemur
    lfemur ltibia
    ltibia lfoot
    lfoot ltoes
    rhipjoint rfemur
    rfemur rtibia
    rtibia rfoot
    rfoot rtoes
    lowerback upperback
    upperback thorax
    thorax lowerneck lclavicle rclavicle
    lowerneck upperneck
    upperneck head
    lclavicle lhumerus
    lhumerus lradius
    lradius lwrist
    lwrist lhand lthumb
    lhand lfingers
    rclavicle rhumerus
    rhumerus rradius
    rradius rwrist
    rwrist rhand rthumb
    rhand rfingers
  end

#!OML:ASF H:\Dans Jumps\Project 1\Capture day 1\Session 1\subject.ASF
:FULLY-SPECIFIED
:DEGREES
1
root 0.815013 17.5408 -13.9765 6.53065 -1.99989 -1.47491
lowerback -2.99483 -0.754288 0.297751
upperback 3.25197 -1.10905 1.83067
thorax 5.07303 -0.576972 1.64664
lowerneck -14.0369 1.02777 -1.87773
upperneck 30.3658 2.19399 -0.646521
head 12.3451 0.666558 0.39709
rclavicle -1.51573e-014 6.36111e-015
rhumerus -23.7319 -20.2124 -77.9733
rradius 25.1576
rwrist 33.486
rhand -18.0991 -26.1842
rfingers 7.12502
rthumb 8.17467 -56.0061
lclavicle -1.51573e-014 6.36111e-015
lhumerus -20.6137 5.66377 85.153
lradius 17.2805
lwrist -2.27542
lhand -23.7653 -3.01173
lfingers 7.12502
lthumb 2.70398 26.9509
rfemur -13.5531 -1.94586 19.0226
rtibia 21.134
rfoot -13.2025 -2.85666
rtoes 11.6364
lfemur -11.5753 8.41598 -17.9552
ltibia 17.7677
lfoot -10.9391 4.55277
ltoes -7.08224
2
root 0.816204 17.5408 -13.9701 6.5298 -1.99281 -1.46717
lowerback -3.02332 -0.757139 0.284992
upperback 3.25 -1.11219 1.82304
thorax 5.0874 -0.578853 1.64534
lowerneck -14.066 1.03122 -1.88737
upperneck 30.4465 2.19003 -0.601859
head 12.383 0.668057 0.415737
rclavicle 1.44119e-015 -6.75868e-015
rhumerus -23.7193 -20.1855 -77.9941
rradius 25.2326
rwrist 33.3709
rhand -18.0546 -26.2575
rfingers 7.12502
rthumb 8.21764 -56.0777
lclavicle 1.44119e-015 -6.75868e-015
lhumerus -20.5877 5.68065 85.1784
lradius 17.3815
lwrist -2.28773
lhand -23.7089 -3.1674
lfingers 7.12502
lthumb 2.75851 26.7945
rfemur -13.5259 -1.94414 19.0052
rtibia 21.1244
rfoot -13.2116 -2.86565
rtoes 11.6132
lfemur -11.5411 8.44936 -17.974
ltibia 17.7414
lfoot -10.9546 4.57748
ltoes -7.21002
3
root 0.818363 17.5416 -13.9646 6.54409 -1.91934 -1.47968
lowerback -3.04028 -0.788103 0.298573
upperback 3.22362 -1.15466 1.83653
thorax 5.07071 -0.59956 1.64841
lowerneck -14.0796 1.03569 -1.87758
upperneck 30.5276 2.19635 -0.603951
head 12.4189 0.670326 0.414666
rclavicle -2.43511e-015 1.23246e-014
rhumerus -23.7193 -20.1922 -77.9693
rradius 25.2638
rwrist 33.3521
rhand -17.9767 -26.3087
rfingers 7.12502
rthumb 8.29286 -56.126
lclavicle -2.43511e-015 1.23246e-014
lhumerus -20.5497 5.44511 85.2705
lradius 17.416
lwrist -2.01708
lhand -23.7905 -3.27795
lfingers 7.12502
lthumb 2.67973 26.685
rfemur -13.4894 -1.98092 19.0153
rtibia 21.0849
rfoot -13.2058 -2.89771
rtoes 11.639
lfemur -11.5449 8.39881 -17.9713
ltibia 17.7335
lfoot -10.9302 4.62634
ltoes -7.38896
4
root 0.819943 17.5423 -13.9588 6.55241 -1.87349 -1.5079
lowerback -3.07139 -0.80548 0.332103
upperback 3.21878 -1.18042 1.84412
thorax 5.08362 -0.611242 1.63518
lowerneck -14.0831 1.04089 -1.8879
upperneck 30.5702 2.19936 -0.577943
head 12.4364 0.673141 0.427003
rclavicle -1.58034e-014 1.03368e-014
rhumerus -23.7015 -20.1629 -77.9878
rradius 25.3154
rwrist 33.2674
rhand -18.0634 -26.2159
rfingers 7.12502
rthumb 8.20914 -56.0364
lclavicle -1.58034e-014 1.03368e-014
lhumerus -20.5343 5.33931 85.3188
lradius 17.5614
lwrist -1.89148
lhand -23.8378 -3.26828
lfingers 7.12502
lthumb 2.63404 26.6952
rfemur -13.4531 -1.9773 19.0431
rtibia 21.0504
rfoot -13.2003 -2.95959
rtoes 11.5719
lfemur -11.5374 8.39668 -17.9494
ltibia 17.7228
lfoot -10.9473 4.645
ltoes -7.45543
5
root 0.821547 17.5429 -13.9533 6.56434 -1.82478 -1.5245
lowerback -3.09923 -0.8235 0.351857
upperback 3.20959 -1.2061 1.85037
thorax 5.09034 -0.623344 1.62832
lowerneck -14.0911 1.04334 -1.89035
upperneck 30.6168 2.19908 -0.560319
head 12.4567 0.674232 0.434386
rclavicle 2.27608e-014 -6.75868e-015
rhumerus -23.6819 -20.1559 -77.9963
rradius 25.3589
rwrist 33.2116
rhand -18.0835 -26.2007
rfingers 7.12502
rthumb 8.18979 -56.022
lclavicle 2.27608e-014 -6.75868e-015
lhumerus -20.5027 5.19899 85.3786
lradius 17.6741
lwrist -1.73218
lhand -23.8704 -3.24346
lfingers 7.12502
lthumb 2.60254 26.7204
rfemur -13.4176 -1.981 19.058
rtibia 21.0098
rfoot -13.1945 -3.01178
rtoes 11.5406
lfemur -11.5377 8.38365 -17.9406
ltibia 17.7174
lfoot -10.9556 4.67257
ltoes -7.56717
6
root 0.82303 17.5435 -13.9481 6.57748 -1.77637 -1.54287
lowerback -3.12724 -0.839742 0.374429
upperback 3.20214 -1.22959 1.85626
thorax 5.09884 -0.634254 1.61967
lowerneck -14.0925 1.04399 -1.89506
upperneck 30.65 2.196 -0.541549
head 12.4702 0.674229 0.442069
rclavicle 1.50579e-014 -5.56597e-015
rhumerus -23.6602 -20.1494 -78.009
rradius 25.404
rwrist 33.1593
rhand -18.1081 -26.1856
rfingers 7.12502
rthumb 8.166 -56.0078
lclavicle 1.50579e-014 -5.56597e-015
lhumerus -20.4634 5.04499 85.4383
lradius 17.788
lwrist -1.56195
lhand -23.904 -3.18528
lfingers 7.12502
lthumb 2.57009 26.779
rfemur -13.3846 -1.97789 19.0761
rtibia 20.971
rfoot -13.1907 -3.07371
rtoes 11.5045
lfemur -11.5401 8.36563 -17.9286
ltibia 17.7121
lfoot -10.9646 4.6997
ltoes -7.66713
7
root 0.824328 17.5439 -13.9431 6.59135 -1.73272 -1.5578
lowerback -3.15425 -0.852199 0.394086
upperback 3.19607 -1.24776 1.85937
thorax 5.10806 -0.642578 1.61015
lowerneck -14.0879 1.04211 -1.90398
upperneck 30.6722 2.18846 -0.517791
head 12.4778 0.672628 0.451629
rclavicle 2.98177e-015 -1.47101e-014
rhumerus -23.64 -20.14 -78.0263
rradius 25.4543
rwrist 33.1063
rhand -18.1314 -26.1772
rfingers 7.12502
rthumb 8.14352 -56.0003
lclavicle 2.98177e-015 -1.47101e-014
lhumerus -20.415 4.8917 85.4928
lradius 17.8971
lwrist -1.39887
lhand -23.9312 -3.11553
lfingers 7.12502
lthumb 2.54378 26.849
rfemur -13.3579 -1.96874 19.091
rtibia 20.9404
rfoot -13.191 -3.14014
rtoes 11.4648
lfemur -11.5426 8.34609 -17.9195
ltibia 17.7055
lfoot -10.9744 4.72544
ltoes -7.75318
